# xmcd
#
# Track frame offsets:
#	150
#	13671
#	28075
#	42004
#	58650
#	72773
#	85298
#	97590
#	112100
#	126725
#	140187
#	156389
#
# Disc length: 2301 seconds
# Revision: 0
# Processed by: cddbd v1.5.2PL0 Copyright (c) Steve Scherf et al.
# Submitted via: dBpowerAMP V12.0
#
DISCID=a908fb0c
DTITLE=The Farm Hands - Memories Of Home
DYEAR=2019
DGENRE=Bluegrass
TTITLE0=Stop And Smell The Roses
TTITLE1=I Can't Go Home Anymore
TTITLE2=Winds of Fall
TTITLE3=You Never Gave Up On Me
TTITLE4=Home Sweet Home
TTITLE5=Mississippi Flood
TTITLE6=One Last Tear
TTITLE7=In The Garden
TTITLE8=How To Make A Man
TTITLE9=Baptism
TTITLE10=Grandpa
TTITLE11=Southern By The Grace Of God
EXTD=
EXTT0=
EXTT1=
EXTT2=
EXTT3=
EXTT4=
EXTT5=
EXTT6=
EXTT7=
EXTT8=
EXTT9=
EXTT10=
EXTT11=
PLAYORDER=
